<svg xmlns="http://www.w3.org/2000/svg" xmlns:xlink="http://www.w3.org/1999/xlink" width="780.000000" height="338.000000" viewBox="0 0 780 338" fill="none">
	<desc>
			Created with Pixso.
	</desc>
	<defs/>
	<path id="Body_ring" d="M787 338L0 338L0 174C-0.00402832 162.242 1.17889 150.494 3.53094 138.953C8.08765 116.688 16.9854 95.54 29.7159 76.7148C48.6017 48.7412 75.1937 26.8428 106.271 13.6743C116.797 9.22461 127.738 5.82861 138.933 3.53516C150.474 1.18164 162.222 -0.00292969 174 0L787 0L787 338Z" fill="#AFAAC1" fill-opacity="1.000000" fill-rule="evenodd"/>
	<path id="Screen_contener" d="M788 338L16 338L16 174C15.9948 163.21 17.0812 152.407 19.2429 141.794C23.4321 121.314 31.6157 101.86 43.326 84.543C60.6927 58.8184 85.147 38.6821 113.726 26.5742C123.405 22.4829 133.465 19.3599 143.759 17.251C154.37 15.0874 165.171 13.998 176 14L788 14L788 338Z" fill="#000000" fill-opacity="1.000000" fill-rule="evenodd"/>
	<path id="Screen" d="M787 338L77 338L77 168C76.9697 148.873 82.6825 130.175 93.3987 114.328C103.817 98.8936 118.487 86.811 135.632 79.5439C147.454 74.541 160.163 71.9756 173 72L787 72L787 338Z" fill="#1E1E1E" fill-opacity="1.000000" fill-rule="evenodd"/>
	<path id="Notch" d="M767.8 133L334 133C306.386 133 284 110.614 284 83C284 55.3857 306.386 33 334 33L767.8 33C774.39 32.9883 780.917 34.2871 787 36.8208L787 129.179C780.917 131.713 774.39 133.012 767.8 133L767.8 133Z" fill="#000000" fill-opacity="1.000000" fill-rule="evenodd"/>
	<path id="Shape-66" d="M496 86C496 83.5146 496.879 81.3936 498.636 79.6362C500.393 77.8789 502.515 77 505 77L602 77C604.485 77 606.607 77.8789 608.364 79.6362C610.121 81.3936 611 83.5146 611 86C611 88.4854 610.121 90.6064 608.364 92.3638C606.607 94.1211 604.485 95 602 95L505 95C502.515 95 500.393 94.1211 498.636 92.3638C496.879 90.6064 496 88.4854 496 86Z" fill="#2B2B29" fill-opacity="1.000000" fill-rule="evenodd"/>
	<circle id="Circle" cx="657.000000" cy="86.000000" r="17.000000" fill="#171717" fill-opacity="1.000000"/>
	<circle id="Circle" cx="657.000000" cy="86.000000" r="16.000000" stroke="#2B2B29" stroke-opacity="1.000000" stroke-width="2.000000"/>
	<circle id="Shape-68" cx="657.000000" cy="86.000000" r="6.000000" fill="#232A5E" fill-opacity="1.000000"/>
	<path id="Search_bar" d="M781 303L125 303C116.163 303 109 295.837 109 287L109 245C109 236.163 116.163 229 125 229L781 229C783.426 228.993 785.821 229.543 788 230.608L788 301.391C785.821 302.456 783.426 303.006 781 303Z" fill="#323234" fill-opacity="1.000000" fill-rule="evenodd"/>
	<path id="yourname.wavium.co" d="M823.798 253.526Q823.663 253.811 823.663 254.16Q823.663 254.519 823.806 254.806Q823.895 254.984 824.039 255.134Q824.123 255.222 824.222 255.291Q824.561 255.527 825.064 255.527Q825.561 255.527 825.903 255.296Q826.008 255.226 826.098 255.134Q826.253 254.975 826.346 254.786Q826.482 254.506 826.482 254.16Q826.482 253.823 826.354 253.547Q826.26 253.346 826.098 253.177Q825.999 253.074 825.883 252.997Q825.547 252.775 825.064 252.775Q824.575 252.775 824.242 253.003Q824.132 253.077 824.039 253.177Q823.888 253.337 823.798 253.526ZM615.944 263.679Q614.91 265.815 614.91 268.481L614.91 268.891Q614.91 272.677 616.715 275.141Q616.947 275.458 617.209 275.753Q618.156 276.819 619.336 277.447Q621.021 278.342 623.182 278.342Q625.068 278.342 626.629 277.63Q627.063 277.432 627.471 277.18Q627.972 276.87 628.414 276.49Q629.627 275.446 630.385 273.873Q631.419 271.728 631.419 269.045L631.419 268.618Q631.419 264.814 629.604 262.344Q629.38 262.04 629.129 261.756Q628.206 260.712 627.055 260.089Q625.351 259.167 623.147 259.167Q621.414 259.167 619.945 259.79Q619.387 260.027 618.866 260.355Q618.302 260.71 617.814 261.149Q616.669 262.181 615.944 263.679ZM662.027 261.132Q662.762 261.132 663.411 261.252L663.462 259.389Q662.967 259.167 662.112 259.167Q660.382 259.167 659.108 259.93Q657.741 260.749 656.9 262.448L656.866 259.509L654.866 259.509L654.866 278L656.9 278L656.9 265.302Q657.464 263.269 658.788 262.2Q659.109 261.942 659.463 261.746Q660.576 261.132 662.027 261.132ZM668.658 262.67L668.589 259.509L666.641 259.509L666.641 278L668.675 278L668.675 265.336Q669.305 263.522 670.552 262.378Q670.69 262.251 670.837 262.132Q671.543 261.558 672.352 261.261Q673.215 260.944 674.195 260.944Q676.323 260.944 677.365 262.008Q677.436 262.081 677.502 262.158Q678.536 263.371 678.553 265.849L678.553 278L680.586 278L680.586 265.866Q680.569 262.517 679.117 260.842Q678.948 260.647 678.758 260.475Q677.318 259.167 674.69 259.167Q673.43 259.167 672.316 259.57Q671.768 259.769 671.255 260.064Q671.139 260.131 671.025 260.203Q669.622 261.089 668.658 262.67ZM697.146 275.419Q697.232 277.128 697.54 278L699.727 278L699.727 277.795Q699.163 276.462 699.163 273.779L699.163 265.029Q699.126 263.003 698.159 261.632Q697.805 261.129 697.326 260.714Q697.301 260.692 697.276 260.671Q695.497 259.167 692.447 259.167Q690.039 259.167 688.24 260.214Q687.805 260.467 687.405 260.782Q685.94 261.936 685.522 263.391Q685.354 263.972 685.354 264.602L687.405 264.619Q687.405 264.132 687.545 263.69Q687.848 262.735 688.807 261.987Q688.941 261.882 689.082 261.787Q690.413 260.893 692.344 260.893Q694.686 260.893 695.907 262.03Q696.202 262.303 696.425 262.626Q697.129 263.643 697.129 265.148L697.129 267.25L693.421 267.25Q689.405 267.25 687.157 268.823Q685.993 269.638 685.432 270.756Q684.91 271.795 684.91 273.095Q684.91 274.312 685.383 275.304Q685.793 276.164 686.559 276.855Q686.831 277.1 687.129 277.304Q688.647 278.342 690.875 278.342Q691.98 278.342 693.016 278.074Q693.726 277.891 694.404 277.581Q695.491 277.085 696.328 276.315Q696.773 275.906 697.146 275.419ZM706.546 262.517L706.478 259.509L704.512 259.509L704.512 278L706.563 278L706.563 265.319Q707.229 263.149 708.614 262.047Q709.033 261.713 709.501 261.481Q710.582 260.944 711.929 260.944Q714.169 260.944 715.272 262.064Q715.297 262.089 715.322 262.115Q716.424 263.286 716.441 265.661L716.441 278L718.492 278L718.492 265.764Q718.568 264.867 718.916 264.093Q719.345 263.14 720.184 262.371Q720.744 261.858 721.398 261.529Q722.517 260.966 723.909 260.944Q726.256 260.944 727.31 262.111Q727.323 262.126 727.336 262.141Q728.387 263.337 728.404 265.815L728.404 278L730.455 278L730.455 265.661Q730.389 262.123 728.595 260.513Q727.095 259.167 724.388 259.167Q722.999 259.167 721.776 259.616Q721.237 259.814 720.73 260.098Q720.168 260.414 719.683 260.821Q718.737 261.615 718.082 262.756Q717.616 261.34 716.654 260.483Q715.176 259.167 712.527 259.167Q711.051 259.167 709.785 259.684Q709.439 259.825 709.109 260.004Q708.97 260.08 708.835 260.163Q707.478 260.993 706.546 262.517ZM739.768 277.794Q741.174 278.342 742.793 278.342Q745.323 278.342 747.146 277.206Q748.414 276.417 749.339 275.078L748.057 274.104Q747.032 275.419 745.776 276.018Q744.52 276.616 742.879 276.616Q741.552 276.616 740.445 276.123Q739.27 275.6 738.342 274.522Q737.907 274.017 737.577 273.451Q736.539 271.67 736.539 269.284L736.539 268.891L749.732 268.891L749.732 267.746Q749.732 263.78 747.774 261.484L747.758 261.466Q747.066 260.659 746.202 260.136Q744.603 259.167 742.417 259.167Q741.519 259.167 740.674 259.38Q739.494 259.677 738.418 260.389Q737.948 260.7 737.53 261.071Q736.309 262.155 735.539 263.747Q734.505 265.883 734.505 268.549L734.505 269.284Q734.505 271.723 735.451 273.711Q735.506 273.827 735.564 273.941Q736.249 275.282 737.286 276.242Q737.855 276.768 738.53 277.18Q739.127 277.544 739.768 277.794ZM799.737 275.419Q799.822 277.128 800.13 278L802.317 278L802.317 277.795Q801.753 276.462 801.753 273.779L801.753 265.029Q801.716 263.003 800.75 261.632Q800.395 261.129 799.916 260.714Q799.891 260.692 799.866 260.671Q798.087 259.167 795.037 259.167Q792.629 259.167 790.831 260.214Q790.395 260.467 789.996 260.782Q788.53 261.936 788.112 263.391Q787.945 263.972 787.945 264.602L789.996 264.619Q789.996 264.132 790.136 263.69Q790.439 262.735 791.397 261.987Q791.531 261.882 791.672 261.787Q793.003 260.893 794.935 260.893Q797.276 260.893 798.498 262.03Q798.792 262.303 799.015 262.626Q799.72 263.643 799.72 265.148L799.72 267.25L796.011 267.25Q791.995 267.25 789.748 268.823Q788.583 269.638 788.022 270.756Q787.5 271.795 787.5 273.095Q787.5 274.312 787.973 275.304Q788.383 276.164 789.15 276.855Q789.421 277.1 789.72 277.304Q791.237 278.342 793.465 278.342Q794.57 278.342 795.606 278.074Q796.316 277.891 796.994 277.581Q798.082 277.085 798.918 276.315Q799.363 275.906 799.737 275.419ZM852.784 262.517L852.715 259.509L850.75 259.509L850.75 278L852.801 278L852.801 265.319Q853.467 263.149 854.852 262.047Q855.27 261.713 855.739 261.481Q856.82 260.944 858.167 260.944Q860.407 260.944 861.51 262.064Q861.535 262.089 861.559 262.115Q862.662 263.286 862.679 265.661L862.679 278L864.729 278L864.729 265.764Q864.806 264.867 865.154 264.093Q865.582 263.14 866.421 262.371Q866.982 261.858 867.635 261.529Q868.755 260.966 870.147 260.944Q872.493 260.944 873.547 262.111Q873.561 262.126 873.573 262.141Q874.625 263.337 874.642 265.815L874.642 278L876.692 278L876.692 265.661Q876.627 262.123 874.833 260.513Q873.333 259.167 870.625 259.167Q869.237 259.167 868.014 259.616Q867.475 259.814 866.968 260.098Q866.406 260.414 865.921 260.821Q864.974 261.615 864.319 262.756Q863.854 261.34 862.891 260.483Q861.414 259.167 858.765 259.167Q857.289 259.167 856.023 259.684Q855.677 259.825 855.347 260.004Q855.208 260.08 855.073 260.163Q853.716 260.993 852.784 262.517ZM899.93 275.909Q898.699 276.616 897.063 276.616Q895.294 276.616 894.031 275.816Q893.306 275.356 892.748 274.633Q891.219 272.651 891.219 269.113L891.219 268.515Q891.219 264.909 892.748 262.91Q893.33 262.15 894.09 261.679Q895.33 260.91 897.046 260.91Q898.55 260.91 899.696 261.55Q900.205 261.833 900.644 262.243Q901.081 262.652 901.397 263.139Q902.113 264.241 902.208 265.747L904.173 265.747Q904.081 263.769 903.168 262.304Q902.716 261.578 902.062 260.979Q901.539 260.498 900.94 260.145Q899.281 259.167 897.046 259.167Q894.978 259.167 893.363 260.023Q893.11 260.157 892.868 260.312Q892.44 260.587 892.059 260.916Q890.853 261.961 890.125 263.559Q889.168 265.661 889.168 268.396L889.168 269.011Q889.168 273.217 891.23 275.733Q891.262 275.773 891.296 275.812Q892.075 276.738 893.056 277.325Q894.756 278.342 897.063 278.342Q898.234 278.342 899.312 278.025Q899.934 277.843 900.524 277.556Q901.681 276.992 902.51 276.117Q902.837 275.771 903.113 275.377Q903.611 274.665 903.877 273.876Q904.131 273.12 904.173 272.292L902.208 272.292Q902.144 273.309 901.707 274.125Q901.321 274.846 900.644 275.411Q900.306 275.693 899.93 275.909ZM908.163 263.679Q907.129 265.815 907.129 268.481L907.129 268.891Q907.129 272.677 908.934 275.141Q909.166 275.458 909.428 275.753Q910.375 276.819 911.555 277.447Q913.24 278.342 915.401 278.342Q917.287 278.342 918.848 277.63Q919.282 277.432 919.69 277.18Q920.192 276.87 920.633 276.49Q921.846 275.446 922.604 273.873Q923.638 271.728 923.638 269.045L923.638 268.618Q923.638 264.814 921.823 262.344Q921.599 262.04 921.348 261.756Q920.425 260.712 919.274 260.089Q917.57 259.167 915.367 259.167Q913.633 259.167 912.164 259.79Q911.606 260.027 911.086 260.355Q910.521 260.71 910.033 261.149Q908.888 262.181 908.163 263.679ZM610.928 259.509L605.528 275.061L599.786 259.509L597.547 259.509L604.52 277.846L603.614 280.341Q602.964 282.153 602.033 282.896Q602.012 282.913 601.992 282.929Q601.068 283.64 599.598 283.64L598.538 283.537L598.555 285.229Q599.393 285.468 600.127 285.468Q601.317 285.468 602.274 284.997Q603.875 284.209 604.827 282.102L605.237 281.145L613.133 259.509L610.928 259.509ZM646.428 276.871Q647.056 276.355 647.535 275.659L647.569 278L649.551 278L649.551 259.509L647.5 259.509L647.5 272.89Q647.029 274.358 646.037 275.24Q644.546 276.564 641.878 276.564Q640.188 276.564 639.166 275.738Q637.605 274.475 637.605 271.284L637.605 259.509L635.572 259.509L635.572 271.54Q635.606 274.907 637.144 276.624Q637.382 276.89 637.654 277.115Q639.14 278.342 641.639 278.342Q644.638 278.342 646.428 276.871ZM766.805 275.334L766.497 273.745L762.583 259.509L760.481 259.509L765.848 278L767.591 278L772.256 263.354L772.479 262.329L772.701 263.337L777.452 278L779.195 278L784.578 259.509L782.459 259.509L778.665 273.693L778.272 275.488L777.793 273.54L773.401 259.509L771.658 259.509L767.215 273.659L766.805 275.334ZM818.331 259.509L812.708 275.18L807.034 259.509L804.932 259.509L811.871 278L813.528 278L820.433 259.509L818.331 259.509ZM824.021 278L826.072 278L826.072 259.509L824.021 259.509L824.021 278ZM842.414 276.871Q843.042 276.355 843.521 275.659L843.555 278L845.538 278L845.538 259.509L843.487 259.509L843.487 272.89Q843.016 274.358 842.023 275.24Q840.532 276.564 837.864 276.564Q836.174 276.564 835.152 275.738Q833.592 274.475 833.592 271.284L833.592 259.509L831.558 259.509L831.558 271.54Q831.592 274.907 833.13 276.624Q833.369 276.89 833.641 277.115Q835.126 278.342 837.625 278.342Q840.624 278.342 842.414 276.871ZM618.362 274.064Q616.961 272.039 616.961 269.045L616.961 268.669Q616.961 265.301 618.587 263.182Q618.636 263.118 618.687 263.055Q619.566 261.963 620.706 261.427Q621.805 260.91 623.147 260.91Q624.394 260.91 625.449 261.359Q625.943 261.568 626.395 261.876Q626.573 261.997 626.741 262.131Q627.912 263.062 628.599 264.602Q629.385 266.362 629.385 268.481L629.385 268.874Q629.385 272.317 627.71 274.435Q627.689 274.462 627.668 274.488Q626.838 275.516 625.762 276.048Q624.612 276.616 623.182 276.616Q621.719 276.616 620.551 276.029Q619.494 275.499 618.678 274.488Q618.512 274.282 618.362 274.064ZM740.314 261.324Q741.277 260.91 742.417 260.91Q743.753 260.91 744.795 261.463Q745.567 261.872 746.177 262.585Q746.32 262.751 746.449 262.927Q747.621 264.524 747.698 266.926L747.698 267.148L736.607 267.148Q736.949 264.294 738.53 262.602Q739.329 261.746 740.314 261.324ZM910.581 274.064Q909.18 272.039 909.18 269.045L909.18 268.669Q909.18 265.301 910.807 263.182Q910.856 263.118 910.906 263.055Q911.785 261.963 912.925 261.427Q914.024 260.91 915.367 260.91Q916.613 260.91 917.669 261.359Q918.162 261.568 918.614 261.876Q918.792 261.997 918.96 262.131Q920.131 263.062 920.818 264.602Q921.604 266.362 921.604 268.481L921.604 268.874Q921.604 272.317 919.929 274.435Q919.908 274.462 919.887 274.488Q919.057 275.516 917.981 276.048Q916.831 276.616 915.401 276.616Q913.939 276.616 912.771 276.029Q911.714 275.499 910.898 274.488Q910.731 274.282 910.581 274.064ZM693.987 275.954Q692.677 276.53 691.114 276.53Q689.573 276.53 688.515 275.816Q688.305 275.674 688.115 275.505Q687.551 275.004 687.263 274.376Q686.961 273.719 686.961 272.924Q686.961 272.121 687.27 271.464Q687.692 270.568 688.687 269.942Q690.413 268.857 693.472 268.823L697.129 268.823L697.129 272.89Q696.853 273.513 696.453 274.042Q695.788 274.92 694.78 275.539Q694.396 275.775 693.987 275.954ZM796.577 275.954Q795.267 276.53 793.704 276.53Q792.164 276.53 791.105 275.816Q790.896 275.674 790.705 275.505Q790.141 275.004 789.853 274.376Q789.551 273.719 789.551 272.924Q789.551 272.121 789.86 271.464Q790.282 270.568 791.277 269.942Q793.003 268.857 796.062 268.823L799.72 268.823L799.72 272.89Q799.444 273.513 799.043 274.042Q798.378 274.92 797.37 275.539Q796.986 275.775 796.577 275.954ZM753.663 276.12Q753.526 276.413 753.526 276.77Q753.526 277.165 753.694 277.466Q753.78 277.622 753.91 277.752Q753.964 277.805 754.023 277.851Q754.39 278.137 754.979 278.137Q755.563 278.137 755.935 277.856Q755.998 277.808 756.055 277.752Q756.197 277.613 756.288 277.446Q756.448 277.151 756.448 276.77Q756.448 276.426 756.318 276.141Q756.222 275.931 756.055 275.753Q755.963 275.654 755.854 275.579Q755.501 275.334 754.979 275.334Q754.451 275.334 754.101 275.584Q753.998 275.657 753.91 275.753Q753.755 275.922 753.663 276.12ZM881.819 276.12Q881.683 276.413 881.683 276.77Q881.683 277.165 881.85 277.466Q881.937 277.622 882.067 277.752Q882.12 277.805 882.179 277.851Q882.546 278.137 883.135 278.137Q883.72 278.137 884.092 277.856Q884.155 277.808 884.212 277.752Q884.354 277.613 884.445 277.446Q884.605 277.151 884.605 276.77Q884.605 276.426 884.475 276.141Q884.379 275.931 884.212 275.753Q884.119 275.654 884.011 275.579Q883.658 275.334 883.135 275.334Q882.607 275.334 882.258 275.584Q882.155 275.657 882.067 275.753Q881.912 275.922 881.819 276.12Z" fill="#84E575" fill-opacity="1.000000" fill-rule="evenodd"/>
	<path id="AA" d="M148.759 277L150.431 272.361L157.877 272.361L159.574 277L161.979 277L155.18 259.227L153.129 259.227L146.342 277L148.759 277ZM165.067 277L166.74 272.361L174.186 272.361L175.883 277L178.288 277L171.488 259.227L169.438 259.227L162.65 277L165.067 277ZM157.182 270.433L151.139 270.433L154.154 262.12L157.182 270.433ZM173.49 270.433L167.448 270.433L170.463 262.12L173.49 270.433Z" fill="#FFFFFF" fill-opacity="1.000000" fill-rule="evenodd"/>
	<path id="_9:41" d="M195.233 134.818Q196.387 134.423 197.353 133.475C197.05 136.766 195.058 138.494 191.376 138.66L190.438 138.675L190.438 142.205L191.479 142.19Q195.294 142.03 197.748 140.119Q198.422 139.595 198.993 138.938Q199.008 138.922 199.022 138.905Q201.645 135.862 201.645 130.56L201.645 128.992Q201.63 126.443 200.722 124.466Q199.963 122.814 198.693 121.806Q198.443 121.607 198.173 121.434Q197.75 121.162 197.296 120.96Q195.989 120.379 194.423 120.379Q192.879 120.379 191.567 120.931Q191.137 121.112 190.731 121.353Q190.101 121.727 189.578 122.216Q188.739 122.999 188.175 124.078Q187.95 124.509 187.78 124.961Q187.26 126.344 187.26 127.923Q187.26 131.039 188.779 132.944Q188.866 133.054 188.959 133.16Q189.583 133.872 190.359 134.323Q191.696 135.101 193.485 135.101Q194.407 135.101 195.233 134.818ZM236.391 142L240.624 142L240.624 120.643L240.17 120.643L231.337 123.807L231.337 127.249L236.391 125.682L236.391 142ZM228.07 133.973L225.653 133.973L225.653 120.672L221.376 120.672L212.484 134.72L212.675 137.386L221.42 137.386L221.42 142L225.653 142L225.653 137.386L228.07 137.386L228.07 133.973ZM196.006 131.514Q195.36 131.863 194.525 131.863Q193.71 131.863 193.1 131.509Q192.626 131.233 192.277 130.743Q191.479 129.622 191.479 127.879Q191.479 126.121 192.299 124.957Q192.815 124.223 193.512 123.952Q193.922 123.792 194.394 123.792Q195.008 123.792 195.512 124.028Q196.137 124.321 196.591 124.979Q197.411 126.165 197.411 128.318L197.411 130.062Q197.352 130.177 197.284 130.288Q196.916 130.89 196.291 131.336Q196.153 131.434 196.006 131.514ZM205.724 126.282C205.27 126.702 205.043 127.249 205.043 127.923Q205.043 128.547 205.308 129.025Q205.465 129.309 205.717 129.542Q205.899 129.71 206.107 129.832Q206.671 130.164 207.431 130.164Q208.226 130.164 208.805 129.81Q208.994 129.695 209.159 129.542Q209.411 129.309 209.568 129.025Q209.833 128.547 209.833 127.923Q209.833 127.284 209.561 126.797Q209.402 126.514 209.152 126.282Q208.954 126.1 208.727 125.97Q208.169 125.652 207.431 125.652Q206.728 125.652 206.187 125.948Q205.939 126.084 205.724 126.282ZM221.42 133.973L216.703 133.973L221.142 126.927L221.42 126.443L221.42 133.973ZM205.315 138.794Q205.043 139.281 205.043 139.92Q205.043 140.544 205.308 141.022Q205.465 141.306 205.717 141.539Q205.899 141.707 206.107 141.829Q206.671 142.161 207.431 142.161Q208.226 142.161 208.805 141.807Q208.994 141.692 209.159 141.539Q209.411 141.306 209.568 141.022Q209.833 140.544 209.833 139.92Q209.833 139.281 209.561 138.794Q209.402 138.511 209.152 138.279Q208.954 138.097 208.727 137.967Q208.169 137.649 207.431 137.649Q206.728 137.649 206.187 137.945Q205.939 138.081 205.724 138.279Q205.474 138.511 205.315 138.794Z" fill="#FFFFFF" fill-opacity="1.000000" fill-rule="evenodd"/>
	<path id="Shape-69" d="M416.559 260.029L416.559 262.829L419.041 262.829L419.041 269.488C419.041 275.034 414.545 279.529 409 279.529C403.454 279.529 398.959 275.034 398.959 269.488L398.959 262.829L401.444 262.829L401.444 260.029C401.443 257.329 402.883 254.833 405.222 253.482C407.56 252.131 410.442 252.131 412.781 253.481C415.12 254.832 416.56 257.328 416.559 260.029ZM403.028 262.829L414.973 262.829L414.972 260.029C414.972 256.731 412.298 254.057 409 254.057C405.702 254.057 403.028 256.731 403.028 260.029L403.028 262.829ZM409.794 272.23L409.794 274.701L408.207 274.701L408.207 272.231C406.811 271.835 405.92 270.471 406.12 269.034C406.32 267.597 407.549 266.527 409 266.527C410.45 266.527 411.679 267.597 411.879 269.034C412.078 270.471 411.189 271.834 409.794 272.23ZM409.794 272.23L409.792 272.231L409.794 272.229L409.794 272.23Z" clip-rule="evenodd" fill="#80E770" fill-opacity="1.000000" fill-rule="evenodd"/>
</svg>